<?xml version="1.0" standalone="no"?>
<!DOCTYPE svg PUBLIC "-//W3C//DTD SVG 20010904//EN"
 "http://www.w3.org/TR/2001/REC-SVG-20010904/DTD/svg10.dtd">
<svg version="1.0" xmlns="http://www.w3.org/2000/svg"
 width="752.000000pt" height="1280.000000pt" viewBox="0 0 752.000000 1280.000000"
 preserveAspectRatio="xMidYMid meet">
<metadata>
Created by potrace 1.15, written by Peter Selinger 2001-2017
</metadata>
<g transform="translate(0.000000,1280.000000) scale(0.100000,-0.100000)"
fill="#fff" stroke="none">
<path d="M3475 12790 c-872 -69 -1713 -445 -2333 -1045 -582 -562 -979 -1342
-1101 -2160 -28 -190 -36 -300 -36 -550 0 -348 25 -567 100 -881 130 -546 381
-1056 742 -1510 112 -140 397 -425 538 -538 401 -320 909 -573 1448 -722 l57
-15 0 -535 0 -534 -1345 0 -1345 0 0 -860 0 -860 1345 0 1345 0 0 -1290 0
-1290 860 0 860 0 2 1288 3 1287 1348 3 1347 2 0 860 0 860 -1350 0 -1350 0 0
530 0 530 23 10 c12 5 76 23 142 40 750 196 1416 643 1947 1308 332 416 561
880 688 1395 79 322 104 544 105 912 0 316 -13 460 -67 735 -82 425 -257 871
-499 1269 -250 413 -609 798 -994 1066 -520 363 -1109 593 -1730 676 -172 23
-572 33 -750 19z m569 -1716 c413 -57 870 -276 1163 -557 307 -294 530 -741
600 -1197 20 -137 23 -440 4 -570 -70 -489 -266 -872 -622 -1216 -346 -334
-733 -517 -1198 -565 -164 -17 -475 -7 -621 21 -397 73 -729 243 -1028 525
-448 423 -671 966 -649 1580 14 367 111 695 301 1019 202 342 466 582 841 762
398 191 790 255 1209 198z"/>
</g>
</svg>
