<?xml version="1.0" standalone="no"?>
<!DOCTYPE svg PUBLIC "-//W3C//DTD SVG 20010904//EN"
 "http://www.w3.org/TR/2001/REC-SVG-20010904/DTD/svg10.dtd">
<svg version="1.0" xmlns="http://www.w3.org/2000/svg"
 width="1280.000000pt" height="1280.000000pt" viewBox="0 0 1280.000000 1280.000000"
 preserveAspectRatio="xMidYMid meet">
<metadata>
Created by potrace 1.15, written by Peter Selinger 2001-2017
</metadata>
<g transform="translate(0.000000,1280.000000) scale(0.100000,-0.100000)"
fill="#fff" stroke="none">
<path d="M7340 11745 l-1055 -1055 1455 0 1455 0 -1071 -1071 -1072 -1072 -28
20 c-107 76 -446 246 -674 338 -530 213 -1041 318 -1625 332 -769 18 -1488
-143 -2176 -487 -452 -226 -825 -497 -1194 -865 -261 -260 -461 -511 -663
-832 -110 -175 -299 -552 -375 -748 -306 -786 -391 -1638 -247 -2480 129 -752
456 -1480 935 -2080 734 -920 1775 -1520 2935 -1694 253 -38 378 -46 690 -45
334 0 484 13 784 64 1661 285 3051 1479 3587 3081 427 1277 273 2709 -413
3838 l-39 65 1070 1070 1071 1071 0 -1455 0 -1455 1055 1055 1055 1055 0 2202
0 2203 -2203 0 -2202 0 -1055 -1055z m-2580 -4535 c326 -19 600 -83 896 -210
764 -328 1343 -1043 1508 -1860 81 -400 62 -868 -50 -1240 -131 -437 -345
-798 -658 -1113 -404 -406 -948 -672 -1516 -742 -163 -20 -477 -20 -640 0
-466 58 -932 254 -1298 548 -391 314 -687 737 -841 1203 -95 287 -131 512
-131 824 0 312 36 537 131 825 56 169 166 404 257 548 448 713 1212 1169 2037
1217 72 4 132 8 135 8 3 1 79 -3 170 -8z"/>
</g>
</svg>
