<?xml version="1.0" standalone="no"?>
<!DOCTYPE svg PUBLIC "-//W3C//DTD SVG 20010904//EN"
 "http://www.w3.org/TR/2001/REC-SVG-20010904/DTD/svg10.dtd">
<svg version="1.0" xmlns="http://www.w3.org/2000/svg"
 width="1187.000000pt" height="1280.000000pt" viewBox="0 0 1187.000000 1280.000000"
 preserveAspectRatio="xMidYMid meet">
<metadata>
Created by potrace 1.15, written by Peter Selinger 2001-2017
</metadata>
<g transform="translate(0.000000,1280.000000) scale(0.100000,-0.100000)"
fill="#fff" stroke="none">
<path d="M2550 12794 c-14 -2 -65 -9 -115 -15 -49 -6 -148 -26 -220 -44 -909
-231 -1681 -1122 -2025 -2336 -83 -292 -133 -569 -172 -949 -19 -187 -16 -754
6 -955 100 -947 400 -1732 897 -2350 404 -503 906 -818 1469 -922 132 -24 486
-24 660 0 527 73 1045 363 1772 989 196 169 342 303 781 717 214 201 395 370
403 374 8 5 -63 -96 -159 -225 -95 -128 -232 -312 -304 -408 -71 -96 -320
-440 -553 -765 -1473 -2052 -2334 -3226 -3453 -4706 -171 -226 -229 -325 -281
-481 -64 -196 -79 -401 -37 -510 26 -67 73 -112 133 -129 86 -24 277 35 553
171 585 288 1111 806 1767 1740 52 75 177 257 278 405 101 149 265 389 364
535 541 796 849 1185 1247 1575 245 240 440 398 681 551 139 88 428 241 428
226 0 -6 -20 -88 -44 -184 -114 -441 -160 -819 -160 -1298 0 -482 47 -865 159
-1295 155 -594 391 -1088 729 -1525 113 -147 386 -417 526 -522 317 -238 620
-371 985 -435 138 -24 461 -24 600 0 488 84 910 316 1295 713 565 582 939
1418 1065 2379 33 259 40 369 39 695 -1 425 -23 657 -99 1035 -259 1281 -990
2288 -1908 2629 -115 43 -244 78 -377 103 -132 24 -486 24 -660 0 -527 -73
-1045 -363 -1772 -989 -196 -169 -342 -303 -781 -717 -214 -201 -395 -370
-403 -374 -8 -5 63 96 159 225 95 128 232 312 304 408 71 96 320 441 553 765
1473 2052 2334 3226 3453 4706 171 226 229 325 281 481 64 196 79 401 37 510
-26 67 -73 112 -133 129 -86 24 -277 -35 -553 -171 -585 -288 -1111 -806
-1767 -1740 -52 -75 -177 -257 -278 -405 -101 -149 -265 -389 -364 -535 -541
-796 -849 -1185 -1247 -1575 -245 -240 -440 -398 -681 -551 -139 -88 -428
-241 -428 -226 0 6 20 88 44 184 114 441 160 819 160 1298 0 482 -47 865 -159
1295 -155 594 -391 1088 -729 1525 -113 147 -386 417 -526 522 -316 237 -625
373 -980 433 -90 15 -406 29 -460 19z m390 -1203 c158 -53 288 -140 431 -288
487 -504 773 -1548 709 -2593 -43 -706 -229 -1341 -519 -1775 -251 -376 -537
-565 -856 -565 -316 0 -609 193 -855 563 -682 1024 -706 2979 -50 4057 170
280 402 499 615 581 124 48 186 59 315 55 97 -3 130 -8 210 -35z m6406 -5181
c176 -44 369 -169 517 -337 569 -640 823 -1940 611 -3123 -116 -649 -360
-1181 -686 -1496 -209 -201 -420 -292 -658 -281 -225 10 -428 114 -631 324
-487 504 -773 1548 -709 2593 68 1102 480 1999 1042 2265 159 76 350 96 514
55z"/>
</g>
</svg>
